<svg xmlns="http://www.w3.org/2000/svg" id="mainsvg" width="388.0500011444092" height="481.5" viewBox="-10 -10 388.0500011444092 481.5"><defs><marker id="arrow" viewBox="0 0 10 10" refX="10" refY="5" markerWidth="6" markerHeight="6" orient="auto-start-reverse"><path d="M 0 0 L 10 5 L 0 10 z"/></marker><filter id="shadowfilter" x="-20%" y="-20%" width="150%" height="150%" filterUnits="objectBoundingBox" primitiveUnits="userSpaceOnUse" color-interpolation-filters="linearRGB"><feDropShadow stdDeviation="4 4" in="SourceGraphic" dx="1" dy="1" flood-color="#BABABA" flood-opacity="0.9" x="0%" y="0%" width="100%" height="100%" result="dropShadow"/></filter><filter id="shadowfilter2" x="0" y="0" width="200%" height="200%" filterUnits="userSpaceOnUse" color-interpolation-filters="sRGB"><feFlood flood-opacity="0" result="BackgroundImageFix"/><feColorMatrix in="SourceAlpha" type="matrix" values="0 0 0 0 0 0 0 0 0 0 0 0 0 0 0 0 0 0 127 0"/><feOffset dy="4" dx="2"/><feGaussianBlur stdDeviation="2"/><feColorMatrix type="matrix" values="0 0 0 0 0 0 0 0 0 0 0 0 0 0 0 0 0 0 0.25 0"/><feBlend mode="normal" in2="BackgroundImageFix" result="effect1_dropShadow"/><feBlend mode="normal" in="SourceGraphic" in2="effect1_dropShadow" result="shape"/></filter></defs><path transform="rotate(0,0, 0) scale(1)" d="M219.47979857704857,32.5L227.2887211423932,36.666666666666664C235.09764370773777,40.833333333333336,250.71548883842698,49.166666666666664,258.5244114037716,57.5C266.3333339691162,65.83333333333333,266.3333339691162,74.16666666666667,266.3333339691162,78.33333333333333L266.3333339691162,82.5" stroke="black" stroke-dasharray="none" stroke-width="1" fill="none" marker-end="url(#arrow)"/><path transform="rotate(0,0, 0) scale(1)" d="M150.69141468857273,32.5L140.8622901030261,36.666666666666664C131.0331655174795,40.833333333333336,111.37491634638623,49.166666666666664,101.5457917608396,60.208333333333336C91.71666717529297,71.25,91.71666717529297,85,91.71666717529297,98.75C91.71666717529297,112.5,91.71666717529297,126.25,91.71666717529297,140C91.71666717529297,153.75,91.71666717529297,167.5,91.71666717529297,181.25C91.71666717529297,195,91.71666717529297,208.75,92.83619579482159,221.16666666666666C93.9557244143502,233.58333333333334,96.19478165340745,244.66666666666666,97.31431027293608,250.20833333333334L98.43383889246469,255.75" stroke="black" stroke-dasharray="none" stroke-width="1" fill="none" marker-end="url(#arrow)"/><path transform="rotate(0,0, 0) scale(1)" d="M266.3333339691162,115L266.3333339691162,119.16666666666667C266.3333339691162,123.33333333333333,266.3333339691162,131.66666666666666,266.3333339691162,140C266.3333339691162,148.33333333333334,266.3333339691162,156.66666666666666,266.3333339691162,160.83333333333334L266.3333339691162,165" stroke="black" stroke-dasharray="none" stroke-width="1" fill="none" marker-end="url(#arrow)"/><path transform="rotate(0,0, 0) scale(1)" d="M231.9391420248783,197.5L223.12011844943268,201.66666666666666C214.30109487398704,205.83333333333334,196.66304772309581,214.16666666666666,179.18913497105993,223.875C161.71522221902404,233.58333333333334,144.4054438658435,244.66666666666666,135.75055468925322,250.20833333333334L127.09566551266295,255.75" stroke="black" stroke-dasharray="none" stroke-width="1" fill="none" marker-end="url(#arrow)"/><path transform="rotate(0,0, 0) scale(1)" d="M270.27272790851015,197.5L271.2828289186112,201.66666666666666C272.29292992871217,205.83333333333334,274.3131319489142,214.16666666666666,275.32323295901523,222.5C276.3333339691162,230.83333333333334,276.3333339691162,239.16666666666666,276.3333339691162,243.33333333333334L276.3333339691162,247.5" stroke="black" stroke-dasharray="none" stroke-width="1" fill="none" marker-end="url(#arrow)"/><path transform="rotate(0,0, 0) scale(1)" d="M101.71666717529297,288.25L101.71666717529297,293.7916666666667C101.71666717529297,299.3333333333333,101.71666717529297,310.4166666666667,101.71666717529297,320.125C101.71666717529297,329.8333333333333,101.71666717529297,338.1666666666667,101.71666717529297,342.3333333333333L101.71666717529297,346.5" stroke="black" stroke-dasharray="none" stroke-width="1" fill="none" marker-end="url(#arrow)"/><path transform="rotate(0,0, 0) scale(1)" d="M101.71666717529297,379L101.71666717529297,383.1666666666667C101.71666717529297,387.3333333333333,101.71666717529297,395.6666666666667,101.71666717529297,404C101.71666717529297,412.3333333333333,101.71666717529297,420.6666666666667,101.71666717529297,424.8333333333333L101.71666717529297,429" stroke="black" stroke-dasharray="none" stroke-width="1" fill="none" marker-end="url(#arrow)"/><g transform="translate(229.05000114440918, 82.5)"><rect width="74.56666564941406" height="32.5" stroke="#555656" fill="white" stroke-width="1.3" transform="translate(0, 0)" rx="2" filter="url(#shadowfilter)"/><text fill="black" font-size="14" font-weight="normal" transform="translate(8, 8)" alignment-baseline="middle" font-family="Bookman"><tspan x="0" dy="14">Reading</tspan></text></g><g transform="translate(146.97500133514404, 0)"><rect width="84.0999984741211" height="32.5" stroke="#555656" fill="white" stroke-width="1.3" transform="translate(0, 0)" rx="2" filter="url(#shadowfilter)"/><text fill="black" font-size="14" font-weight="normal" transform="translate(8, 8)" alignment-baseline="middle" font-family="Bookman"><tspan x="0" dy="14">Daily Life</tspan></text></g><g transform="translate(68.8166675567627, 255.75)"><rect width="65.79999923706055" height="32.5" stroke="#555656" fill="white" stroke-width="1.3" transform="translate(0, 0)" rx="2" filter="url(#shadowfilter)"/><text fill="black" font-size="14" font-weight="normal" transform="translate(8, 8)" alignment-baseline="middle" font-family="Bookman"><tspan x="0" dy="14">Insight</tspan></text></g><g transform="translate(200.63333320617676, 165)"><rect width="131.4000015258789" height="32.5" stroke="#555656" fill="white" stroke-width="1.3" transform="translate(0, 0)" rx="2" filter="url(#shadowfilter)"/><text fill="black" font-size="14" font-weight="normal" transform="translate(8, 8)" alignment-baseline="middle" font-family="Bookman"><tspan x="0" dy="14">Literature notes</tspan></text></g><g transform="translate(184.61666679382324, 247.5)"><rect width="183.43333435058594" height="49" stroke="#555656" fill="white" stroke-width="1.3" transform="translate(0, 0)" rx="2" filter="url(#shadowfilter)"/><text fill="black" font-size="14" font-weight="normal" transform="translate(8, 8)" alignment-baseline="middle" font-family="Bookman"><tspan x="0" dy="14">Reference system (with</tspan><tspan x="0" dy="14">biblographic info)</tspan></text></g><g transform="translate(67.3166675567627, 346.5)"><rect width="68.79999923706055" height="32.5" stroke="#555656" fill="white" stroke-width="1.3" transform="translate(0, 0)" rx="2" filter="url(#shadowfilter)"/><text fill="black" font-size="14" font-weight="normal" transform="translate(8, 8)" alignment-baseline="middle" font-family="Bookman"><tspan x="0" dy="14">Slipbox</tspan></text></g><g transform="translate(0, 429)"><rect width="203.43333435058594" height="32.5" stroke="#555656" fill="white" stroke-width="1.3" transform="translate(0, 0)" rx="2" filter="url(#shadowfilter)"/><text fill="black" font-size="14" font-weight="normal" transform="translate(8, 8)" alignment-baseline="middle" font-family="Bookman"><tspan x="0" dy="14">Notes are self-explanatory</tspan></text></g></svg>